<?xml version="1.0" standalone="no"?>
<!DOCTYPE svg PUBLIC "-//W3C//DTD SVG 20010904//EN"
 "http://www.w3.org/TR/2001/REC-SVG-20010904/DTD/svg10.dtd">
<svg version="1.0" xmlns="http://www.w3.org/2000/svg"
 width="162.000000pt" height="162.000000pt" viewBox="0 0 162.000000 162.000000"
 preserveAspectRatio="xMidYMid meet">
<metadata>
Created by potrace 1.14, written by Peter Selinger 2001-2017
</metadata>
<g transform="translate(0.000000,162.000000) scale(0.100000,-0.100000)"
fill="#000000" stroke="none">
<path d="M642 1556 c-112 -42 -179 -103 -224 -203 -16 -36 -23 -72 -25 -143
-1 -52 -8 -107 -14 -123 -6 -15 -9 -48 -6 -74 6 -58 41 -93 92 -93 27 0 35 -5
43 -27 5 -16 31 -55 57 -87 l49 -59 -27 -23 c-26 -23 -84 -44 -120 -44 -32 0
-94 -39 -131 -82 -42 -49 -54 -83 -37 -110 9 -14 9 -19 -1 -22 -7 -2 -20 -6
-28 -9 -19 -6 -101 -187 -107 -237 -12 -89 58 -139 208 -148 85 -5 88 -6 99
-33 7 -16 20 -31 30 -34 20 -6 729 41 753 51 9 3 22 20 28 37 11 30 16 33 93
48 45 9 99 24 120 34 44 21 76 67 76 109 0 29 -51 132 -95 191 -12 17 -30 46
-40 65 -63 125 -152 190 -260 190 -53 0 -68 4 -104 30 l-42 31 24 29 c14 16
35 53 47 83 20 48 28 56 55 61 44 9 66 37 72 90 4 32 0 57 -14 88 -11 24 -25
81 -32 128 -26 197 -168 311 -385 309 -70 0 -106 -6 -154 -23z m310 -58 c111
-52 167 -131 175 -248 3 -48 2 -61 -6 -50 -6 8 -11 27 -11 41 0 98 -102 222
-204 250 -62 17 -178 12 -239 -11 -65 -24 -129 -77 -161 -133 -28 -48 -47
-130 -39 -168 3 -15 0 -30 -6 -33 -17 -11 -14 124 4 175 32 89 119 164 225
194 78 21 194 14 262 -17z m-146 -374 c36 -6 104 -9 158 -6 l96 5 2 -49 c4
-95 -2 -129 -35 -183 -18 -29 -44 -65 -58 -80 -30 -30 -129 -81 -158 -81 -48
0 -133 43 -181 91 -65 65 -86 108 -94 194 l-7 71 33 12 c18 7 45 30 61 51 l27
39 47 -26 c26 -14 75 -31 109 -38z m-102 -454 c71 -36 139 -39 205 -10 51 24
74 25 90 6 10 -12 2 -18 -41 -34 -104 -39 -219 -37 -303 5 -40 20 -38 18 -23
42 7 12 13 21 13 21 0 0 27 -14 59 -30z m-133 -57 c12 -16 12 -17 -1 -6 -8 6
-26 13 -40 16 l-25 4 26 2 c15 0 33 -7 40 -16z m479 -17 c0 -2 -7 -7 -16 -10
-8 -3 -12 -2 -9 4 6 10 25 14 25 6z m-53 -32 c-3 -3 -12 -4 -19 -1 -8 3 -5 6
6 6 11 1 17 -2 13 -5z m236 -1 c-13 -2 -33 -2 -45 0 -13 2 -3 4 22 4 25 0 35
-2 23 -4z m-116 -10 c-20 -2 -52 -2 -70 0 -17 2 0 4 38 4 39 0 53 -2 32 -4z
m-294 -31 c22 -20 47 -24 48 -9 0 7 5 1 10 -12 l9 -24 143 7 c78 4 157 10 176
13 l34 6 -5 -192 c-3 -105 -8 -194 -11 -198 -7 -6 -698 -56 -703 -50 -8 8 -64
327 -64 363 0 19 8 21 172 32 144 9 174 14 185 28 19 26 -2 44 -51 45 -22 0
-50 4 -61 9 -12 5 4 6 40 3 33 -3 68 -13 78 -21z m167 22 c-35 -7 -98 -9 -94
-2 3 5 29 7 57 7 29 -1 45 -3 37 -5z m320 -25 c15 -28 5 -23 -15 7 -9 15 -12
23 -6 20 6 -4 16 -16 21 -27z m-632 4 c-15 -2 -42 -2 -60 0 -18 2 -6 4 27 4
33 0 48 -2 33 -4z m-321 -18 c0 -8 -4 -12 -9 -9 -5 3 -6 10 -3 15 9 13 12 11
12 -6z m176 8 c-13 -2 -35 -2 -50 0 -16 2 -5 4 22 4 28 0 40 -2 28 -4z m-135
-108 c-3 -3 -9 2 -12 12 -6 14 -5 15 5 6 7 -7 10 -15 7 -18z m-117 -58 c-10
-9 -11 -8 -5 6 3 10 9 15 12 12 3 -3 0 -11 -7 -18z m129 3 c0 -11 -4 -20 -9
-20 -5 0 -7 9 -4 20 3 11 7 20 9 20 2 0 4 -9 4 -20z m1088 -27 c44 -60 -19
-109 -160 -127 -54 -6 -52 -9 -42 81 l7 51 46 10 c61 14 133 6 149 -15z
m-1073 -64 c4 -6 10 -38 13 -71 l5 -61 -76 6 c-43 4 -93 13 -113 22 -33 13
-35 17 -32 52 2 28 9 41 28 50 31 16 166 17 175 2z"/>
<path d="M883 1043 c-18 -7 -16 -58 2 -73 8 -7 22 -10 30 -6 21 8 20 72 -1 80
-9 3 -16 6 -17 5 -1 0 -8 -3 -14 -6z"/>
<path d="M673 1014 c-9 -24 14 -66 35 -62 12 2 18 15 20 41 3 34 1 37 -23 37
-14 0 -28 -7 -32 -16z"/>
<path d="M808 354 c-46 -24 -62 -79 -37 -126 12 -23 66 -48 104 -48 34 0 84
48 91 87 6 28 1 38 -29 68 -39 39 -81 46 -129 19z m92 -63 c7 -15 6 -24 -6
-36 -21 -21 -68 -16 -72 8 -8 42 57 66 78 28z"/>
</g>
</svg>
